M48
; DRILL file {KiCad 7.0.9} date Sat Dec 23 13:52:42 2023
; FORMAT={-:-/ absolute / metric / decimal}
; #@! TF.CreationDate,2023-12-23T13:52:42+09:00
; #@! TF.GenerationSoftware,Kicad,Pcbnew,7.0.9
; #@! TF.FileFunction,Plated,1,2,PTH
FMAT,2
METRIC
; #@! TA.AperFunction,Plated,PTH,ComponentDrill
T1C0.750
; #@! TA.AperFunction,Plated,PTH,ComponentDrill
T2C0.800
; #@! TA.AperFunction,Plated,PTH,ComponentDrill
T3C0.900
; #@! TA.AperFunction,Plated,PTH,ComponentDrill
T4C1.000
%
G90
G05
T1
X157.48Y-88.6
X157.48Y-89.87
X157.48Y-91.14
X157.48Y-111.46
X157.48Y-112.73
X157.48Y-114.0
T2
X149.86Y-93.68
X149.86Y-103.84
X149.86Y-108.92
X149.86Y-119.08
X167.65Y-103.8
X167.65Y-108.8
X177.8Y-101.3
X177.8Y-111.46
T3
X177.8Y-116.54
X177.8Y-119.08
T4
G00X171.45Y-89.9
M15
G01X171.45Y-87.3
M16
G05
G00X173.25Y-83.8
M15
G01X175.45Y-83.8
M16
G05
G00X177.75Y-89.7
M15
G01X177.75Y-87.5
M16
G05
T0
M30
