%TF.GenerationSoftware,KiCad,Pcbnew,7.0.9*%
%TF.CreationDate,2023-12-23T13:53:55+09:00*%
%TF.ProjectId,______1,d7edb8a7-afc8-4312-9e6b-696361645f70,rev?*%
%TF.SameCoordinates,Original*%
%TF.FileFunction,Legend,Bot*%
%TF.FilePolarity,Positive*%
%FSLAX46Y46*%
G04 Gerber Fmt 4.6, Leading zero omitted, Abs format (unit mm)*
G04 Created by KiCad (PCBNEW 7.0.9) date 2023-12-23 13:53:55*
%MOMM*%
%LPD*%
G01*
G04 APERTURE LIST*
%ADD10C,0.300000*%
G04 APERTURE END LIST*
D10*
X110564510Y-121430828D02*
X111064510Y-120716542D01*
X111421653Y-121430828D02*
X111421653Y-119930828D01*
X111421653Y-119930828D02*
X110850224Y-119930828D01*
X110850224Y-119930828D02*
X110707367Y-120002257D01*
X110707367Y-120002257D02*
X110635938Y-120073685D01*
X110635938Y-120073685D02*
X110564510Y-120216542D01*
X110564510Y-120216542D02*
X110564510Y-120430828D01*
X110564510Y-120430828D02*
X110635938Y-120573685D01*
X110635938Y-120573685D02*
X110707367Y-120645114D01*
X110707367Y-120645114D02*
X110850224Y-120716542D01*
X110850224Y-120716542D02*
X111421653Y-120716542D01*
X109350224Y-121359400D02*
X109493081Y-121430828D01*
X109493081Y-121430828D02*
X109778796Y-121430828D01*
X109778796Y-121430828D02*
X109921653Y-121359400D01*
X109921653Y-121359400D02*
X109993081Y-121216542D01*
X109993081Y-121216542D02*
X109993081Y-120645114D01*
X109993081Y-120645114D02*
X109921653Y-120502257D01*
X109921653Y-120502257D02*
X109778796Y-120430828D01*
X109778796Y-120430828D02*
X109493081Y-120430828D01*
X109493081Y-120430828D02*
X109350224Y-120502257D01*
X109350224Y-120502257D02*
X109278796Y-120645114D01*
X109278796Y-120645114D02*
X109278796Y-120787971D01*
X109278796Y-120787971D02*
X109993081Y-120930828D01*
X108778796Y-120430828D02*
X108421653Y-121430828D01*
X108421653Y-121430828D02*
X108064510Y-120430828D01*
X107493082Y-121287971D02*
X107421653Y-121359400D01*
X107421653Y-121359400D02*
X107493082Y-121430828D01*
X107493082Y-121430828D02*
X107564510Y-121359400D01*
X107564510Y-121359400D02*
X107493082Y-121287971D01*
X107493082Y-121287971D02*
X107493082Y-121430828D01*
X106850224Y-120073685D02*
X106778796Y-120002257D01*
X106778796Y-120002257D02*
X106635939Y-119930828D01*
X106635939Y-119930828D02*
X106278796Y-119930828D01*
X106278796Y-119930828D02*
X106135939Y-120002257D01*
X106135939Y-120002257D02*
X106064510Y-120073685D01*
X106064510Y-120073685D02*
X105993081Y-120216542D01*
X105993081Y-120216542D02*
X105993081Y-120359400D01*
X105993081Y-120359400D02*
X106064510Y-120573685D01*
X106064510Y-120573685D02*
X106921653Y-121430828D01*
X106921653Y-121430828D02*
X105993081Y-121430828D01*
M02*
