%TF.GenerationSoftware,KiCad,Pcbnew,7.0.9*%
%TF.CreationDate,2023-12-23T13:53:55+09:00*%
%TF.ProjectId,______1,d7edb8a7-afc8-4312-9e6b-696361645f70,rev?*%
%TF.SameCoordinates,Original*%
%TF.FileFunction,Copper,L2,Bot*%
%TF.FilePolarity,Positive*%
%FSLAX46Y46*%
G04 Gerber Fmt 4.6, Leading zero omitted, Abs format (unit mm)*
G04 Created by KiCad (PCBNEW 7.0.9) date 2023-12-23 13:53:55*
%MOMM*%
%LPD*%
G01*
G04 APERTURE LIST*
%TA.AperFunction,ComponentPad*%
%ADD10R,1.500000X1.050000*%
%TD*%
%TA.AperFunction,ComponentPad*%
%ADD11O,1.500000X1.050000*%
%TD*%
%TA.AperFunction,ComponentPad*%
%ADD12C,1.600000*%
%TD*%
%TA.AperFunction,ComponentPad*%
%ADD13O,1.600000X1.600000*%
%TD*%
%TA.AperFunction,ComponentPad*%
%ADD14R,1.800000X1.800000*%
%TD*%
%TA.AperFunction,ComponentPad*%
%ADD15C,1.800000*%
%TD*%
%TA.AperFunction,ComponentPad*%
%ADD16R,1.600000X1.600000*%
%TD*%
%TA.AperFunction,ComponentPad*%
%ADD17R,2.000000X4.600000*%
%TD*%
%TA.AperFunction,ComponentPad*%
%ADD18O,2.000000X4.200000*%
%TD*%
%TA.AperFunction,ComponentPad*%
%ADD19O,4.200000X2.000000*%
%TD*%
%TA.AperFunction,Conductor*%
%ADD20C,0.250000*%
%TD*%
G04 APERTURE END LIST*
D10*
%TO.P,Q2,1,E*%
%TO.N,Net-(Q2-E)*%
X157480000Y-88600000D03*
D11*
%TO.P,Q2,2,C*%
%TO.N,Net-(Q2-C)*%
X157480000Y-89870000D03*
%TO.P,Q2,3,B*%
%TO.N,Net-(Q1-C)*%
X157480000Y-91140000D03*
%TD*%
D12*
%TO.P,R2,1*%
%TO.N,Net-(Q2-E)*%
X149860000Y-93680000D03*
D13*
%TO.P,R2,2*%
%TO.N,Net-(Q1-B)*%
X149860000Y-103840000D03*
%TD*%
D12*
%TO.P,R1,1*%
%TO.N,Net-(Q2-C)*%
X177800000Y-101300000D03*
D13*
%TO.P,R1,2*%
%TO.N,Net-(D1-A)*%
X177800000Y-111460000D03*
%TD*%
D14*
%TO.P,D1,1,K*%
%TO.N,GND*%
X177800000Y-119080000D03*
D15*
%TO.P,D1,2,A*%
%TO.N,Net-(D1-A)*%
X177800000Y-116540000D03*
%TD*%
D16*
%TO.P,C1,1*%
%TO.N,Net-(Q2-C)*%
X167650000Y-103800000D03*
D12*
%TO.P,C1,2*%
%TO.N,Net-(Q1-B)*%
X167650000Y-108800000D03*
%TD*%
D17*
%TO.P,J1,1*%
%TO.N,Net-(Q2-E)*%
X171450000Y-88600000D03*
D18*
%TO.P,J1,2*%
%TO.N,GND*%
X177750000Y-88600000D03*
D19*
%TO.P,J1,3*%
X174350000Y-83800000D03*
%TD*%
D12*
%TO.P,R3,1*%
%TO.N,Net-(Q1-B)*%
X149860000Y-108920000D03*
D13*
%TO.P,R3,2*%
%TO.N,GND*%
X149860000Y-119080000D03*
%TD*%
D10*
%TO.P,Q1,1,E*%
%TO.N,GND*%
X157480000Y-114000000D03*
D11*
%TO.P,Q1,2,C*%
%TO.N,Net-(Q1-C)*%
X157480000Y-112730000D03*
%TO.P,Q1,3,B*%
%TO.N,Net-(Q1-B)*%
X157480000Y-111460000D03*
%TD*%
D20*
%TO.N,Net-(Q1-C)*%
X160540000Y-110670000D02*
X158480000Y-112730000D01*
X158480000Y-112730000D02*
X157480000Y-112730000D01*
X158060000Y-91140000D02*
X160540000Y-93620000D01*
X160540000Y-93620000D02*
X160540000Y-110670000D01*
X157480000Y-91140000D02*
X158060000Y-91140000D01*
%TD*%
%TA.AperFunction,Conductor*%
%TO.N,GND*%
G36*
X183323886Y-76239685D02*
G01*
X183369641Y-76292489D01*
X183380844Y-76343150D01*
X183709149Y-124235900D01*
X183689925Y-124303073D01*
X183637435Y-124349189D01*
X183585900Y-124360748D01*
X102614748Y-124849247D01*
X102547591Y-124829967D01*
X102501518Y-124777440D01*
X102490000Y-124725249D01*
X102490000Y-124690000D01*
X102529897Y-118829999D01*
X148581127Y-118829999D01*
X148581128Y-118830000D01*
X149544314Y-118830000D01*
X149532359Y-118841955D01*
X149474835Y-118954852D01*
X149455014Y-119080000D01*
X149474835Y-119205148D01*
X149532359Y-119318045D01*
X149544314Y-119330000D01*
X148581128Y-119330000D01*
X148633730Y-119526317D01*
X148633734Y-119526326D01*
X148729865Y-119732482D01*
X148860342Y-119918820D01*
X149021179Y-120079657D01*
X149207517Y-120210134D01*
X149413673Y-120306265D01*
X149413682Y-120306269D01*
X149609999Y-120358872D01*
X149610000Y-120358871D01*
X149610000Y-119395686D01*
X149621955Y-119407641D01*
X149734852Y-119465165D01*
X149828519Y-119480000D01*
X149891481Y-119480000D01*
X149985148Y-119465165D01*
X150098045Y-119407641D01*
X150110000Y-119395686D01*
X150110000Y-120358872D01*
X150306317Y-120306269D01*
X150306326Y-120306265D01*
X150512482Y-120210134D01*
X150698820Y-120079657D01*
X150859657Y-119918820D01*
X150990134Y-119732482D01*
X151086265Y-119526326D01*
X151086269Y-119526317D01*
X151138872Y-119330000D01*
X150175686Y-119330000D01*
X150187641Y-119318045D01*
X150245165Y-119205148D01*
X150264986Y-119080000D01*
X150245165Y-118954852D01*
X150187641Y-118841955D01*
X150175686Y-118830000D01*
X151138872Y-118830000D01*
X151138872Y-118829999D01*
X151086269Y-118633682D01*
X151086265Y-118633673D01*
X150990134Y-118427517D01*
X150859657Y-118241179D01*
X150698820Y-118080342D01*
X150512482Y-117949865D01*
X150306328Y-117853734D01*
X150110000Y-117801127D01*
X150110000Y-118764314D01*
X150098045Y-118752359D01*
X149985148Y-118694835D01*
X149891481Y-118680000D01*
X149828519Y-118680000D01*
X149734852Y-118694835D01*
X149621955Y-118752359D01*
X149610000Y-118764314D01*
X149610000Y-117801127D01*
X149413671Y-117853734D01*
X149207517Y-117949865D01*
X149021179Y-118080342D01*
X148860342Y-118241179D01*
X148729865Y-118427517D01*
X148633734Y-118633673D01*
X148633730Y-118633682D01*
X148581127Y-118829999D01*
X102529897Y-118829999D01*
X102545488Y-116540006D01*
X176394700Y-116540006D01*
X176413864Y-116771297D01*
X176413866Y-116771308D01*
X176470842Y-116996300D01*
X176564075Y-117208848D01*
X176691018Y-117403150D01*
X176786167Y-117506510D01*
X176817089Y-117569164D01*
X176809228Y-117638590D01*
X176765081Y-117692746D01*
X176738271Y-117706674D01*
X176657911Y-117736646D01*
X176657906Y-117736649D01*
X176542812Y-117822809D01*
X176542809Y-117822812D01*
X176456649Y-117937906D01*
X176456645Y-117937913D01*
X176406403Y-118072620D01*
X176406401Y-118072627D01*
X176400000Y-118132155D01*
X176400000Y-118830000D01*
X177424722Y-118830000D01*
X177376375Y-118913740D01*
X177346190Y-119045992D01*
X177356327Y-119181265D01*
X177405887Y-119307541D01*
X177423797Y-119330000D01*
X176400000Y-119330000D01*
X176400000Y-120027844D01*
X176406401Y-120087372D01*
X176406403Y-120087379D01*
X176456645Y-120222086D01*
X176456649Y-120222093D01*
X176542809Y-120337187D01*
X176542812Y-120337190D01*
X176657906Y-120423350D01*
X176657913Y-120423354D01*
X176792620Y-120473596D01*
X176792627Y-120473598D01*
X176852155Y-120479999D01*
X176852172Y-120480000D01*
X177550000Y-120480000D01*
X177550000Y-119454189D01*
X177602547Y-119490016D01*
X177732173Y-119530000D01*
X177833724Y-119530000D01*
X177934138Y-119514865D01*
X178050000Y-119459068D01*
X178050000Y-120480000D01*
X178747828Y-120480000D01*
X178747844Y-120479999D01*
X178807372Y-120473598D01*
X178807379Y-120473596D01*
X178942086Y-120423354D01*
X178942093Y-120423350D01*
X179057187Y-120337190D01*
X179057190Y-120337187D01*
X179143350Y-120222093D01*
X179143354Y-120222086D01*
X179193596Y-120087379D01*
X179193598Y-120087372D01*
X179199999Y-120027844D01*
X179200000Y-120027827D01*
X179200000Y-119330000D01*
X178175278Y-119330000D01*
X178223625Y-119246260D01*
X178253810Y-119114008D01*
X178243673Y-118978735D01*
X178194113Y-118852459D01*
X178176203Y-118830000D01*
X179200000Y-118830000D01*
X179200000Y-118132172D01*
X179199999Y-118132155D01*
X179193598Y-118072627D01*
X179193596Y-118072620D01*
X179143354Y-117937913D01*
X179143350Y-117937906D01*
X179057190Y-117822812D01*
X179057187Y-117822809D01*
X178942093Y-117736649D01*
X178942086Y-117736645D01*
X178861729Y-117706674D01*
X178805795Y-117664803D01*
X178781378Y-117599338D01*
X178796230Y-117531065D01*
X178813826Y-117506516D01*
X178908979Y-117403153D01*
X179035924Y-117208849D01*
X179129157Y-116996300D01*
X179186134Y-116771305D01*
X179205300Y-116540000D01*
X179205300Y-116539993D01*
X179186135Y-116308702D01*
X179186133Y-116308691D01*
X179129157Y-116083699D01*
X179035924Y-115871151D01*
X178908983Y-115676852D01*
X178908980Y-115676849D01*
X178908979Y-115676847D01*
X178751784Y-115506087D01*
X178751779Y-115506083D01*
X178751777Y-115506081D01*
X178568634Y-115363535D01*
X178568628Y-115363531D01*
X178364504Y-115253064D01*
X178364495Y-115253061D01*
X178144984Y-115177702D01*
X177973282Y-115149050D01*
X177916049Y-115139500D01*
X177683951Y-115139500D01*
X177638164Y-115147140D01*
X177455015Y-115177702D01*
X177235504Y-115253061D01*
X177235495Y-115253064D01*
X177031371Y-115363531D01*
X177031365Y-115363535D01*
X176848222Y-115506081D01*
X176848219Y-115506084D01*
X176691016Y-115676852D01*
X176564075Y-115871151D01*
X176470842Y-116083699D01*
X176413866Y-116308691D01*
X176413864Y-116308702D01*
X176394700Y-116539993D01*
X176394700Y-116540006D01*
X102545488Y-116540006D01*
X102571428Y-112730000D01*
X156224538Y-112730000D01*
X156244337Y-112931031D01*
X156303486Y-113126018D01*
X156304109Y-113195885D01*
X156289902Y-113224589D01*
X156290895Y-113225132D01*
X156286645Y-113232913D01*
X156236403Y-113367620D01*
X156236401Y-113367627D01*
X156230000Y-113427155D01*
X156230000Y-113750000D01*
X157145729Y-113750000D01*
X157151809Y-113750299D01*
X157187776Y-113753841D01*
X157196145Y-113754665D01*
X157161722Y-113792059D01*
X157111449Y-113906670D01*
X157101114Y-114031395D01*
X157131837Y-114152719D01*
X157195394Y-114250000D01*
X156230000Y-114250000D01*
X156230000Y-114572844D01*
X156236401Y-114632372D01*
X156236403Y-114632379D01*
X156286645Y-114767086D01*
X156286649Y-114767093D01*
X156372809Y-114882187D01*
X156372812Y-114882190D01*
X156487906Y-114968350D01*
X156487913Y-114968354D01*
X156622620Y-115018596D01*
X156622627Y-115018598D01*
X156682155Y-115024999D01*
X156682172Y-115025000D01*
X157230000Y-115025000D01*
X157230000Y-114280617D01*
X157299052Y-114334363D01*
X157417424Y-114375000D01*
X157511073Y-114375000D01*
X157603446Y-114359586D01*
X157713514Y-114300019D01*
X157730000Y-114282110D01*
X157730000Y-115025000D01*
X158277828Y-115025000D01*
X158277844Y-115024999D01*
X158337372Y-115018598D01*
X158337379Y-115018596D01*
X158472086Y-114968354D01*
X158472093Y-114968350D01*
X158587187Y-114882190D01*
X158587190Y-114882187D01*
X158673350Y-114767093D01*
X158673354Y-114767086D01*
X158723596Y-114632379D01*
X158723598Y-114632372D01*
X158729999Y-114572844D01*
X158730000Y-114572827D01*
X158730000Y-114250000D01*
X157759560Y-114250000D01*
X157798278Y-114207941D01*
X157848551Y-114093330D01*
X157858886Y-113968605D01*
X157828163Y-113847281D01*
X157767424Y-113754313D01*
X157772223Y-113753841D01*
X157808191Y-113750299D01*
X157814271Y-113750000D01*
X158730000Y-113750000D01*
X158730000Y-113427172D01*
X158729999Y-113427157D01*
X158727139Y-113400557D01*
X158739543Y-113331797D01*
X158777541Y-113286983D01*
X158783728Y-113282487D01*
X158783732Y-113282486D01*
X158821439Y-113255088D01*
X158826290Y-113251901D01*
X158866420Y-113228170D01*
X158880589Y-113213999D01*
X158895379Y-113201368D01*
X158911587Y-113189594D01*
X158941299Y-113153676D01*
X158945212Y-113149376D01*
X160634588Y-111460001D01*
X176494532Y-111460001D01*
X176514364Y-111686686D01*
X176514366Y-111686697D01*
X176573258Y-111906488D01*
X176573261Y-111906497D01*
X176669431Y-112112732D01*
X176669432Y-112112734D01*
X176799954Y-112299141D01*
X176960858Y-112460045D01*
X176960861Y-112460047D01*
X177147266Y-112590568D01*
X177353504Y-112686739D01*
X177573308Y-112745635D01*
X177735230Y-112759801D01*
X177799998Y-112765468D01*
X177800000Y-112765468D01*
X177800002Y-112765468D01*
X177856673Y-112760509D01*
X178026692Y-112745635D01*
X178246496Y-112686739D01*
X178452734Y-112590568D01*
X178639139Y-112460047D01*
X178800047Y-112299139D01*
X178930568Y-112112734D01*
X179026739Y-111906496D01*
X179085635Y-111686692D01*
X179105468Y-111460000D01*
X179085635Y-111233308D01*
X179033995Y-111040583D01*
X179026741Y-111013511D01*
X179026738Y-111013502D01*
X178967987Y-110887511D01*
X178930568Y-110807266D01*
X178800047Y-110620861D01*
X178800045Y-110620858D01*
X178639141Y-110459954D01*
X178452734Y-110329432D01*
X178452732Y-110329431D01*
X178246497Y-110233261D01*
X178246488Y-110233258D01*
X178026697Y-110174366D01*
X178026693Y-110174365D01*
X178026692Y-110174365D01*
X178026691Y-110174364D01*
X178026686Y-110174364D01*
X177800002Y-110154532D01*
X177799998Y-110154532D01*
X177573313Y-110174364D01*
X177573302Y-110174366D01*
X177353511Y-110233258D01*
X177353502Y-110233261D01*
X177147267Y-110329431D01*
X177147265Y-110329432D01*
X176960858Y-110459954D01*
X176799954Y-110620858D01*
X176669432Y-110807265D01*
X176669431Y-110807267D01*
X176573261Y-111013502D01*
X176573258Y-111013511D01*
X176514366Y-111233302D01*
X176514364Y-111233313D01*
X176494532Y-111459998D01*
X176494532Y-111460001D01*
X160634588Y-111460001D01*
X160923788Y-111170801D01*
X160936042Y-111160986D01*
X160935859Y-111160764D01*
X160941866Y-111155792D01*
X160941877Y-111155786D01*
X160972775Y-111122882D01*
X160989227Y-111105364D01*
X160999671Y-111094918D01*
X161010120Y-111084471D01*
X161014379Y-111078978D01*
X161018152Y-111074561D01*
X161050062Y-111040582D01*
X161059715Y-111023020D01*
X161070389Y-111006770D01*
X161082673Y-110990936D01*
X161101180Y-110948167D01*
X161103749Y-110942924D01*
X161126196Y-110902093D01*
X161126197Y-110902092D01*
X161131177Y-110882691D01*
X161137478Y-110864288D01*
X161145438Y-110845896D01*
X161152730Y-110799849D01*
X161153911Y-110794152D01*
X161165500Y-110749019D01*
X161165500Y-110728983D01*
X161167027Y-110709582D01*
X161170160Y-110689804D01*
X161165775Y-110643415D01*
X161165500Y-110637577D01*
X161165500Y-108800001D01*
X166344532Y-108800001D01*
X166364364Y-109026686D01*
X166364366Y-109026697D01*
X166423258Y-109246488D01*
X166423261Y-109246497D01*
X166519431Y-109452732D01*
X166519432Y-109452734D01*
X166649954Y-109639141D01*
X166810858Y-109800045D01*
X166810861Y-109800047D01*
X166997266Y-109930568D01*
X167203504Y-110026739D01*
X167423308Y-110085635D01*
X167585230Y-110099801D01*
X167649998Y-110105468D01*
X167650000Y-110105468D01*
X167650002Y-110105468D01*
X167706673Y-110100509D01*
X167876692Y-110085635D01*
X168096496Y-110026739D01*
X168302734Y-109930568D01*
X168489139Y-109800047D01*
X168650047Y-109639139D01*
X168780568Y-109452734D01*
X168876739Y-109246496D01*
X168935635Y-109026692D01*
X168955468Y-108800000D01*
X168935635Y-108573308D01*
X168876739Y-108353504D01*
X168780568Y-108147266D01*
X168650047Y-107960861D01*
X168650045Y-107960858D01*
X168489141Y-107799954D01*
X168302734Y-107669432D01*
X168302732Y-107669431D01*
X168096497Y-107573261D01*
X168096488Y-107573258D01*
X167876697Y-107514366D01*
X167876693Y-107514365D01*
X167876692Y-107514365D01*
X167876691Y-107514364D01*
X167876686Y-107514364D01*
X167650002Y-107494532D01*
X167649998Y-107494532D01*
X167423313Y-107514364D01*
X167423302Y-107514366D01*
X167203511Y-107573258D01*
X167203502Y-107573261D01*
X166997267Y-107669431D01*
X166997265Y-107669432D01*
X166810858Y-107799954D01*
X166649954Y-107960858D01*
X166519432Y-108147265D01*
X166519431Y-108147267D01*
X166423261Y-108353502D01*
X166423258Y-108353511D01*
X166364366Y-108573302D01*
X166364364Y-108573313D01*
X166344532Y-108799998D01*
X166344532Y-108800001D01*
X161165500Y-108800001D01*
X161165500Y-104647870D01*
X166349500Y-104647870D01*
X166349501Y-104647876D01*
X166355908Y-104707483D01*
X166406202Y-104842328D01*
X166406206Y-104842335D01*
X166492452Y-104957544D01*
X166492455Y-104957547D01*
X166607664Y-105043793D01*
X166607671Y-105043797D01*
X166742517Y-105094091D01*
X166742516Y-105094091D01*
X166749444Y-105094835D01*
X166802127Y-105100500D01*
X168497872Y-105100499D01*
X168557483Y-105094091D01*
X168692331Y-105043796D01*
X168807546Y-104957546D01*
X168893796Y-104842331D01*
X168944091Y-104707483D01*
X168950500Y-104647873D01*
X168950499Y-102952128D01*
X168944091Y-102892517D01*
X168924486Y-102839954D01*
X168893797Y-102757671D01*
X168893793Y-102757664D01*
X168807547Y-102642455D01*
X168807544Y-102642452D01*
X168692335Y-102556206D01*
X168692328Y-102556202D01*
X168557482Y-102505908D01*
X168557483Y-102505908D01*
X168497883Y-102499501D01*
X168497881Y-102499500D01*
X168497873Y-102499500D01*
X168497864Y-102499500D01*
X166802129Y-102499500D01*
X166802123Y-102499501D01*
X166742516Y-102505908D01*
X166607671Y-102556202D01*
X166607664Y-102556206D01*
X166492455Y-102642452D01*
X166492452Y-102642455D01*
X166406206Y-102757664D01*
X166406202Y-102757671D01*
X166355908Y-102892517D01*
X166349501Y-102952116D01*
X166349501Y-102952123D01*
X166349500Y-102952135D01*
X166349500Y-104647870D01*
X161165500Y-104647870D01*
X161165500Y-101300001D01*
X176494532Y-101300001D01*
X176514364Y-101526686D01*
X176514366Y-101526697D01*
X176573258Y-101746488D01*
X176573261Y-101746497D01*
X176669431Y-101952732D01*
X176669432Y-101952734D01*
X176799954Y-102139141D01*
X176960858Y-102300045D01*
X176960861Y-102300047D01*
X177147266Y-102430568D01*
X177353504Y-102526739D01*
X177573308Y-102585635D01*
X177735230Y-102599801D01*
X177799998Y-102605468D01*
X177800000Y-102605468D01*
X177800002Y-102605468D01*
X177856673Y-102600509D01*
X178026692Y-102585635D01*
X178246496Y-102526739D01*
X178452734Y-102430568D01*
X178639139Y-102300047D01*
X178800047Y-102139139D01*
X178930568Y-101952734D01*
X179026739Y-101746496D01*
X179085635Y-101526692D01*
X179105468Y-101300000D01*
X179085635Y-101073308D01*
X179026739Y-100853504D01*
X178930568Y-100647266D01*
X178800047Y-100460861D01*
X178800045Y-100460858D01*
X178639141Y-100299954D01*
X178452734Y-100169432D01*
X178452732Y-100169431D01*
X178246497Y-100073261D01*
X178246488Y-100073258D01*
X178026697Y-100014366D01*
X178026693Y-100014365D01*
X178026692Y-100014365D01*
X178026691Y-100014364D01*
X178026686Y-100014364D01*
X177800002Y-99994532D01*
X177799998Y-99994532D01*
X177573313Y-100014364D01*
X177573302Y-100014366D01*
X177353511Y-100073258D01*
X177353502Y-100073261D01*
X177147267Y-100169431D01*
X177147265Y-100169432D01*
X176960858Y-100299954D01*
X176799954Y-100460858D01*
X176669432Y-100647265D01*
X176669431Y-100647267D01*
X176573261Y-100853502D01*
X176573258Y-100853511D01*
X176514366Y-101073302D01*
X176514364Y-101073313D01*
X176494532Y-101299998D01*
X176494532Y-101300001D01*
X161165500Y-101300001D01*
X161165500Y-93702742D01*
X161167224Y-93687122D01*
X161166939Y-93687095D01*
X161167673Y-93679333D01*
X161165500Y-93610172D01*
X161165500Y-93580656D01*
X161165500Y-93580650D01*
X161164631Y-93573779D01*
X161164173Y-93567952D01*
X161162710Y-93521373D01*
X161157119Y-93502130D01*
X161153173Y-93483078D01*
X161150664Y-93463208D01*
X161133504Y-93419867D01*
X161131624Y-93414379D01*
X161118618Y-93369610D01*
X161108422Y-93352370D01*
X161099861Y-93334894D01*
X161092487Y-93316270D01*
X161092486Y-93316268D01*
X161065079Y-93278545D01*
X161061888Y-93273686D01*
X161038172Y-93233583D01*
X161038165Y-93233574D01*
X161024006Y-93219415D01*
X161011368Y-93204619D01*
X160999594Y-93188413D01*
X160963688Y-93158709D01*
X160959376Y-93154786D01*
X158752461Y-90947870D01*
X169949500Y-90947870D01*
X169949501Y-90947876D01*
X169955908Y-91007483D01*
X170006202Y-91142328D01*
X170006206Y-91142335D01*
X170092452Y-91257544D01*
X170092455Y-91257547D01*
X170207664Y-91343793D01*
X170207671Y-91343797D01*
X170342517Y-91394091D01*
X170342516Y-91394091D01*
X170349444Y-91394835D01*
X170402127Y-91400500D01*
X172497872Y-91400499D01*
X172557483Y-91394091D01*
X172692331Y-91343796D01*
X172807546Y-91257546D01*
X172893796Y-91142331D01*
X172944091Y-91007483D01*
X172950500Y-90947873D01*
X172950500Y-89762041D01*
X176250000Y-89762041D01*
X176265385Y-89947730D01*
X176265387Y-89947738D01*
X176326412Y-90188717D01*
X176426267Y-90416367D01*
X176562232Y-90624478D01*
X176730592Y-90807364D01*
X176730602Y-90807373D01*
X176926762Y-90960051D01*
X176926771Y-90960057D01*
X177145385Y-91078364D01*
X177145396Y-91078369D01*
X177380507Y-91159083D01*
X177499999Y-91179023D01*
X177500000Y-91179022D01*
X177500000Y-90133686D01*
X177540156Y-90159493D01*
X177678111Y-90200000D01*
X177821889Y-90200000D01*
X177959844Y-90159493D01*
X178000000Y-90133686D01*
X178000000Y-91179023D01*
X178119492Y-91159083D01*
X178354603Y-91078369D01*
X178354614Y-91078364D01*
X178573228Y-90960057D01*
X178573237Y-90960051D01*
X178769397Y-90807373D01*
X178769407Y-90807364D01*
X178937767Y-90624478D01*
X179073732Y-90416367D01*
X179173587Y-90188717D01*
X179234612Y-89947738D01*
X179234614Y-89947730D01*
X179250000Y-89762041D01*
X179250000Y-88850000D01*
X178250000Y-88850000D01*
X178250000Y-88350000D01*
X179250000Y-88350000D01*
X179250000Y-87437959D01*
X179234614Y-87252269D01*
X179234612Y-87252261D01*
X179173587Y-87011282D01*
X179073732Y-86783632D01*
X178937767Y-86575521D01*
X178769407Y-86392635D01*
X178769397Y-86392626D01*
X178573237Y-86239948D01*
X178573228Y-86239942D01*
X178354614Y-86121635D01*
X178354603Y-86121630D01*
X178119492Y-86040916D01*
X178000000Y-86020976D01*
X178000000Y-87066313D01*
X177959844Y-87040507D01*
X177821889Y-87000000D01*
X177678111Y-87000000D01*
X177540156Y-87040507D01*
X177500000Y-87066313D01*
X177500000Y-86020976D01*
X177499999Y-86020976D01*
X177380507Y-86040916D01*
X177145396Y-86121630D01*
X177145385Y-86121635D01*
X176926771Y-86239942D01*
X176926762Y-86239948D01*
X176730602Y-86392626D01*
X176730592Y-86392635D01*
X176562232Y-86575521D01*
X176426267Y-86783632D01*
X176326412Y-87011282D01*
X176265387Y-87252261D01*
X176265385Y-87252269D01*
X176250000Y-87437959D01*
X176250000Y-88350000D01*
X177250000Y-88350000D01*
X177250000Y-88850000D01*
X176250000Y-88850000D01*
X176250000Y-89762041D01*
X172950500Y-89762041D01*
X172950499Y-86252128D01*
X172944091Y-86192517D01*
X172893796Y-86057669D01*
X172893795Y-86057668D01*
X172893793Y-86057664D01*
X172807547Y-85942455D01*
X172807544Y-85942452D01*
X172692335Y-85856206D01*
X172692328Y-85856202D01*
X172557482Y-85805908D01*
X172557483Y-85805908D01*
X172497883Y-85799501D01*
X172497881Y-85799500D01*
X172497873Y-85799500D01*
X172497864Y-85799500D01*
X170402129Y-85799500D01*
X170402123Y-85799501D01*
X170342516Y-85805908D01*
X170207671Y-85856202D01*
X170207664Y-85856206D01*
X170092455Y-85942452D01*
X170092452Y-85942455D01*
X170006206Y-86057664D01*
X170006202Y-86057671D01*
X169955908Y-86192517D01*
X169950810Y-86239942D01*
X169949501Y-86252123D01*
X169949500Y-86252135D01*
X169949500Y-90947870D01*
X158752461Y-90947870D01*
X158725478Y-90920887D01*
X158694499Y-90869203D01*
X158657023Y-90745659D01*
X158561798Y-90567506D01*
X158561794Y-90567502D01*
X158559631Y-90563454D01*
X158545389Y-90495051D01*
X158559631Y-90446546D01*
X158561794Y-90442498D01*
X158561798Y-90442494D01*
X158657023Y-90264341D01*
X158715662Y-90071033D01*
X158735462Y-89870000D01*
X158715662Y-89668967D01*
X158657023Y-89475659D01*
X158657021Y-89475656D01*
X158656694Y-89474576D01*
X158656070Y-89404709D01*
X158670469Y-89375623D01*
X158669544Y-89375118D01*
X158673793Y-89367335D01*
X158673792Y-89367335D01*
X158673796Y-89367331D01*
X158724091Y-89232483D01*
X158730500Y-89172873D01*
X158730499Y-88027128D01*
X158724091Y-87967517D01*
X158673796Y-87832669D01*
X158673795Y-87832668D01*
X158673793Y-87832664D01*
X158587547Y-87717455D01*
X158587544Y-87717452D01*
X158472335Y-87631206D01*
X158472328Y-87631202D01*
X158337482Y-87580908D01*
X158337483Y-87580908D01*
X158277883Y-87574501D01*
X158277881Y-87574500D01*
X158277873Y-87574500D01*
X158277864Y-87574500D01*
X156682129Y-87574500D01*
X156682123Y-87574501D01*
X156622516Y-87580908D01*
X156487671Y-87631202D01*
X156487664Y-87631206D01*
X156372455Y-87717452D01*
X156372452Y-87717455D01*
X156286206Y-87832664D01*
X156286202Y-87832671D01*
X156235908Y-87967517D01*
X156229501Y-88027116D01*
X156229501Y-88027123D01*
X156229500Y-88027135D01*
X156229500Y-89172870D01*
X156229501Y-89172876D01*
X156235908Y-89232483D01*
X156286202Y-89367328D01*
X156290454Y-89375114D01*
X156288378Y-89376247D01*
X156308329Y-89429730D01*
X156303306Y-89474575D01*
X156244337Y-89668968D01*
X156224538Y-89870000D01*
X156244337Y-90071031D01*
X156302978Y-90264345D01*
X156400367Y-90446547D01*
X156414609Y-90514950D01*
X156400367Y-90563453D01*
X156302978Y-90745654D01*
X156244337Y-90938968D01*
X156224538Y-91140000D01*
X156244337Y-91341031D01*
X156302978Y-91534345D01*
X156398198Y-91712488D01*
X156398203Y-91712495D01*
X156526352Y-91868647D01*
X156635016Y-91957824D01*
X156682506Y-91996798D01*
X156682509Y-91996799D01*
X156682511Y-91996801D01*
X156860654Y-92092021D01*
X156860656Y-92092021D01*
X156860659Y-92092023D01*
X157053967Y-92150662D01*
X157204620Y-92165500D01*
X157204623Y-92165500D01*
X157755377Y-92165500D01*
X157755380Y-92165500D01*
X157906033Y-92150662D01*
X158049773Y-92107058D01*
X158119640Y-92106436D01*
X158173449Y-92138039D01*
X159878181Y-93842771D01*
X159911666Y-93904094D01*
X159914500Y-93930452D01*
X159914500Y-110359547D01*
X159894815Y-110426586D01*
X159878181Y-110447228D01*
X158932499Y-111392909D01*
X158871176Y-111426394D01*
X158801484Y-111421410D01*
X158745551Y-111379538D01*
X158721415Y-111317381D01*
X158715662Y-111258968D01*
X158707878Y-111233308D01*
X158657023Y-111065659D01*
X158657021Y-111065656D01*
X158657021Y-111065654D01*
X158561801Y-110887511D01*
X158561799Y-110887509D01*
X158561798Y-110887506D01*
X158489883Y-110799877D01*
X158433647Y-110731352D01*
X158277495Y-110603203D01*
X158277488Y-110603198D01*
X158099345Y-110507978D01*
X157906031Y-110449337D01*
X157795900Y-110438490D01*
X157755380Y-110434500D01*
X157204620Y-110434500D01*
X157167433Y-110438162D01*
X157053968Y-110449337D01*
X156860654Y-110507978D01*
X156682511Y-110603198D01*
X156682504Y-110603203D01*
X156526352Y-110731352D01*
X156398203Y-110887504D01*
X156398198Y-110887511D01*
X156302978Y-111065654D01*
X156244337Y-111258968D01*
X156224538Y-111460000D01*
X156244337Y-111661031D01*
X156302978Y-111854345D01*
X156400367Y-112036547D01*
X156414609Y-112104950D01*
X156400367Y-112153453D01*
X156302978Y-112335654D01*
X156244337Y-112528968D01*
X156224538Y-112730000D01*
X102571428Y-112730000D01*
X102597368Y-108920001D01*
X148554532Y-108920001D01*
X148574364Y-109146686D01*
X148574366Y-109146697D01*
X148633258Y-109366488D01*
X148633261Y-109366497D01*
X148729431Y-109572732D01*
X148729432Y-109572734D01*
X148859954Y-109759141D01*
X149020858Y-109920045D01*
X149020861Y-109920047D01*
X149207266Y-110050568D01*
X149413504Y-110146739D01*
X149633308Y-110205635D01*
X149795230Y-110219801D01*
X149859998Y-110225468D01*
X149860000Y-110225468D01*
X149860002Y-110225468D01*
X149916673Y-110220509D01*
X150086692Y-110205635D01*
X150306496Y-110146739D01*
X150512734Y-110050568D01*
X150699139Y-109920047D01*
X150860047Y-109759139D01*
X150990568Y-109572734D01*
X151086739Y-109366496D01*
X151145635Y-109146692D01*
X151165468Y-108920000D01*
X151145635Y-108693308D01*
X151086739Y-108473504D01*
X150990568Y-108267266D01*
X150860047Y-108080861D01*
X150860045Y-108080858D01*
X150699141Y-107919954D01*
X150512734Y-107789432D01*
X150512732Y-107789431D01*
X150306497Y-107693261D01*
X150306488Y-107693258D01*
X150086697Y-107634366D01*
X150086693Y-107634365D01*
X150086692Y-107634365D01*
X150086691Y-107634364D01*
X150086686Y-107634364D01*
X149860002Y-107614532D01*
X149859998Y-107614532D01*
X149633313Y-107634364D01*
X149633302Y-107634366D01*
X149413511Y-107693258D01*
X149413502Y-107693261D01*
X149207267Y-107789431D01*
X149207265Y-107789432D01*
X149020858Y-107919954D01*
X148859954Y-108080858D01*
X148729432Y-108267265D01*
X148729431Y-108267267D01*
X148633261Y-108473502D01*
X148633258Y-108473511D01*
X148574366Y-108693302D01*
X148574364Y-108693313D01*
X148554532Y-108919998D01*
X148554532Y-108920001D01*
X102597368Y-108920001D01*
X102631954Y-103840001D01*
X148554532Y-103840001D01*
X148574364Y-104066686D01*
X148574366Y-104066697D01*
X148633258Y-104286488D01*
X148633261Y-104286497D01*
X148729431Y-104492732D01*
X148729432Y-104492734D01*
X148859954Y-104679141D01*
X149020858Y-104840045D01*
X149067693Y-104872839D01*
X149207266Y-104970568D01*
X149413504Y-105066739D01*
X149633308Y-105125635D01*
X149795230Y-105139801D01*
X149859998Y-105145468D01*
X149860000Y-105145468D01*
X149860002Y-105145468D01*
X149916673Y-105140509D01*
X150086692Y-105125635D01*
X150306496Y-105066739D01*
X150512734Y-104970568D01*
X150699139Y-104840047D01*
X150860047Y-104679139D01*
X150990568Y-104492734D01*
X151086739Y-104286496D01*
X151145635Y-104066692D01*
X151165468Y-103840000D01*
X151145635Y-103613308D01*
X151086739Y-103393504D01*
X150990568Y-103187266D01*
X150860047Y-103000861D01*
X150860045Y-103000858D01*
X150699141Y-102839954D01*
X150512734Y-102709432D01*
X150512732Y-102709431D01*
X150306497Y-102613261D01*
X150306488Y-102613258D01*
X150086697Y-102554366D01*
X150086693Y-102554365D01*
X150086692Y-102554365D01*
X150086691Y-102554364D01*
X150086686Y-102554364D01*
X149860002Y-102534532D01*
X149859998Y-102534532D01*
X149633313Y-102554364D01*
X149633302Y-102554366D01*
X149413511Y-102613258D01*
X149413502Y-102613261D01*
X149207267Y-102709431D01*
X149207265Y-102709432D01*
X149020858Y-102839954D01*
X148859954Y-103000858D01*
X148729432Y-103187265D01*
X148729431Y-103187267D01*
X148633261Y-103393502D01*
X148633258Y-103393511D01*
X148574366Y-103613302D01*
X148574364Y-103613313D01*
X148554532Y-103839998D01*
X148554532Y-103840001D01*
X102631954Y-103840001D01*
X102701127Y-93680001D01*
X148554532Y-93680001D01*
X148574364Y-93906686D01*
X148574366Y-93906697D01*
X148633258Y-94126488D01*
X148633261Y-94126497D01*
X148729431Y-94332732D01*
X148729432Y-94332734D01*
X148859954Y-94519141D01*
X149020858Y-94680045D01*
X149020861Y-94680047D01*
X149207266Y-94810568D01*
X149413504Y-94906739D01*
X149633308Y-94965635D01*
X149795230Y-94979801D01*
X149859998Y-94985468D01*
X149860000Y-94985468D01*
X149860002Y-94985468D01*
X149916673Y-94980509D01*
X150086692Y-94965635D01*
X150306496Y-94906739D01*
X150512734Y-94810568D01*
X150699139Y-94680047D01*
X150860047Y-94519139D01*
X150990568Y-94332734D01*
X151086739Y-94126496D01*
X151145635Y-93906692D01*
X151165468Y-93680000D01*
X151145635Y-93453308D01*
X151086739Y-93233504D01*
X150990568Y-93027266D01*
X150860047Y-92840861D01*
X150860045Y-92840858D01*
X150699141Y-92679954D01*
X150512734Y-92549432D01*
X150512732Y-92549431D01*
X150306497Y-92453261D01*
X150306488Y-92453258D01*
X150086697Y-92394366D01*
X150086693Y-92394365D01*
X150086692Y-92394365D01*
X150086691Y-92394364D01*
X150086686Y-92394364D01*
X149860002Y-92374532D01*
X149859998Y-92374532D01*
X149633313Y-92394364D01*
X149633302Y-92394366D01*
X149413511Y-92453258D01*
X149413502Y-92453261D01*
X149207267Y-92549431D01*
X149207265Y-92549432D01*
X149020858Y-92679954D01*
X148859954Y-92840858D01*
X148729432Y-93027265D01*
X148729431Y-93027267D01*
X148633261Y-93233502D01*
X148633258Y-93233511D01*
X148574366Y-93453302D01*
X148574364Y-93453313D01*
X148554532Y-93679998D01*
X148554532Y-93680001D01*
X102701127Y-93680001D01*
X102770095Y-83549999D01*
X171770976Y-83549999D01*
X171770978Y-83550000D01*
X172816314Y-83550000D01*
X172790507Y-83590156D01*
X172750000Y-83728111D01*
X172750000Y-83871889D01*
X172790507Y-84009844D01*
X172816314Y-84050000D01*
X171770977Y-84050000D01*
X171790916Y-84169492D01*
X171871630Y-84404603D01*
X171871635Y-84404614D01*
X171989942Y-84623228D01*
X171989948Y-84623237D01*
X172142626Y-84819397D01*
X172142635Y-84819407D01*
X172325522Y-84987767D01*
X172325521Y-84987767D01*
X172533632Y-85123732D01*
X172761282Y-85223587D01*
X173002261Y-85284612D01*
X173002269Y-85284614D01*
X173187959Y-85300000D01*
X174100000Y-85300000D01*
X174100000Y-84300000D01*
X174600000Y-84300000D01*
X174600000Y-85300000D01*
X175512041Y-85300000D01*
X175697730Y-85284614D01*
X175697738Y-85284612D01*
X175938717Y-85223587D01*
X176166367Y-85123732D01*
X176374478Y-84987767D01*
X176557364Y-84819407D01*
X176557373Y-84819397D01*
X176710051Y-84623237D01*
X176710057Y-84623228D01*
X176828364Y-84404614D01*
X176828369Y-84404603D01*
X176909083Y-84169492D01*
X176929023Y-84050000D01*
X175883686Y-84050000D01*
X175909493Y-84009844D01*
X175950000Y-83871889D01*
X175950000Y-83728111D01*
X175909493Y-83590156D01*
X175883686Y-83550000D01*
X176929022Y-83550000D01*
X176929023Y-83549999D01*
X176909083Y-83430507D01*
X176828369Y-83195396D01*
X176828364Y-83195385D01*
X176710057Y-82976771D01*
X176710051Y-82976762D01*
X176557373Y-82780602D01*
X176557364Y-82780592D01*
X176374477Y-82612232D01*
X176374478Y-82612232D01*
X176166367Y-82476267D01*
X175938717Y-82376412D01*
X175697738Y-82315387D01*
X175697730Y-82315385D01*
X175512041Y-82300000D01*
X174600000Y-82300000D01*
X174600000Y-83300000D01*
X174100000Y-83300000D01*
X174100000Y-82300000D01*
X173187959Y-82300000D01*
X173002269Y-82315385D01*
X173002261Y-82315387D01*
X172761282Y-82376412D01*
X172533632Y-82476267D01*
X172325521Y-82612232D01*
X172142635Y-82780592D01*
X172142626Y-82780602D01*
X171989948Y-82976762D01*
X171989942Y-82976771D01*
X171871635Y-83195385D01*
X171871630Y-83195396D01*
X171790916Y-83430507D01*
X171770976Y-83549999D01*
X102770095Y-83549999D01*
X102819162Y-76343156D01*
X102839302Y-76276252D01*
X102892417Y-76230858D01*
X102943159Y-76220000D01*
X183256847Y-76220000D01*
X183323886Y-76239685D01*
G37*
%TD.AperFunction*%
%TD*%
M02*
