%TF.GenerationSoftware,KiCad,Pcbnew,7.0.9*%
%TF.CreationDate,2023-12-23T13:53:55+09:00*%
%TF.ProjectId,______1,d7edb8a7-afc8-4312-9e6b-696361645f70,rev?*%
%TF.SameCoordinates,Original*%
%TF.FileFunction,Copper,L1,Top*%
%TF.FilePolarity,Positive*%
%FSLAX46Y46*%
G04 Gerber Fmt 4.6, Leading zero omitted, Abs format (unit mm)*
G04 Created by KiCad (PCBNEW 7.0.9) date 2023-12-23 13:53:55*
%MOMM*%
%LPD*%
G01*
G04 APERTURE LIST*
G04 Aperture macros list*
%AMRoundRect*
0 Rectangle with rounded corners*
0 $1 Rounding radius*
0 $2 $3 $4 $5 $6 $7 $8 $9 X,Y pos of 4 corners*
0 Add a 4 corners polygon primitive as box body*
4,1,4,$2,$3,$4,$5,$6,$7,$8,$9,$2,$3,0*
0 Add four circle primitives for the rounded corners*
1,1,$1+$1,$2,$3*
1,1,$1+$1,$4,$5*
1,1,$1+$1,$6,$7*
1,1,$1+$1,$8,$9*
0 Add four rect primitives between the rounded corners*
20,1,$1+$1,$2,$3,$4,$5,0*
20,1,$1+$1,$4,$5,$6,$7,0*
20,1,$1+$1,$6,$7,$8,$9,0*
20,1,$1+$1,$8,$9,$2,$3,0*%
G04 Aperture macros list end*
%TA.AperFunction,SMDPad,CuDef*%
%ADD10RoundRect,0.250001X-0.487499X-2.399999X0.487499X-2.399999X0.487499X2.399999X-0.487499X2.399999X0*%
%TD*%
%TA.AperFunction,ComponentPad*%
%ADD11R,1.500000X1.050000*%
%TD*%
%TA.AperFunction,ComponentPad*%
%ADD12O,1.500000X1.050000*%
%TD*%
%TA.AperFunction,ComponentPad*%
%ADD13C,1.600000*%
%TD*%
%TA.AperFunction,ComponentPad*%
%ADD14O,1.600000X1.600000*%
%TD*%
%TA.AperFunction,ComponentPad*%
%ADD15R,1.800000X1.800000*%
%TD*%
%TA.AperFunction,ComponentPad*%
%ADD16C,1.800000*%
%TD*%
%TA.AperFunction,ComponentPad*%
%ADD17R,1.600000X1.600000*%
%TD*%
%TA.AperFunction,ComponentPad*%
%ADD18R,2.000000X4.600000*%
%TD*%
%TA.AperFunction,ComponentPad*%
%ADD19O,2.000000X4.200000*%
%TD*%
%TA.AperFunction,ComponentPad*%
%ADD20O,4.200000X2.000000*%
%TD*%
%TA.AperFunction,Conductor*%
%ADD21C,0.250000*%
%TD*%
%TA.AperFunction,Conductor*%
%ADD22C,0.500000*%
%TD*%
G04 APERTURE END LIST*
D10*
%TO.P,REF\u002A\u002A,GND*%
%TO.N,GND*%
X168590000Y-76290000D03*
%TO.P,REF\u002A\u002A,VCC*%
%TO.N,Net-(Q2-C)*%
X158965000Y-76290000D03*
%TD*%
D11*
%TO.P,Q2,1,E*%
%TO.N,Net-(Q2-E)*%
X157480000Y-88600000D03*
D12*
%TO.P,Q2,2,C*%
%TO.N,Net-(Q2-C)*%
X157480000Y-89870000D03*
%TO.P,Q2,3,B*%
%TO.N,Net-(Q1-C)*%
X157480000Y-91140000D03*
%TD*%
D13*
%TO.P,R2,1*%
%TO.N,Net-(Q2-E)*%
X149860000Y-93680000D03*
D14*
%TO.P,R2,2*%
%TO.N,Net-(Q1-B)*%
X149860000Y-103840000D03*
%TD*%
D13*
%TO.P,R1,1*%
%TO.N,Net-(Q2-C)*%
X177800000Y-101300000D03*
D14*
%TO.P,R1,2*%
%TO.N,Net-(D1-A)*%
X177800000Y-111460000D03*
%TD*%
D15*
%TO.P,D1,1,K*%
%TO.N,GND*%
X177800000Y-119080000D03*
D16*
%TO.P,D1,2,A*%
%TO.N,Net-(D1-A)*%
X177800000Y-116540000D03*
%TD*%
D17*
%TO.P,C1,1*%
%TO.N,Net-(Q2-C)*%
X167650000Y-103800000D03*
D13*
%TO.P,C1,2*%
%TO.N,Net-(Q1-B)*%
X167650000Y-108800000D03*
%TD*%
D18*
%TO.P,J1,1*%
%TO.N,Net-(Q2-E)*%
X171450000Y-88600000D03*
D19*
%TO.P,J1,2*%
%TO.N,GND*%
X177750000Y-88600000D03*
D20*
%TO.P,J1,3*%
X174350000Y-83800000D03*
%TD*%
D13*
%TO.P,R3,1*%
%TO.N,Net-(Q1-B)*%
X149860000Y-108920000D03*
D14*
%TO.P,R3,2*%
%TO.N,GND*%
X149860000Y-119080000D03*
%TD*%
D11*
%TO.P,Q1,1,E*%
%TO.N,GND*%
X157480000Y-114000000D03*
D12*
%TO.P,Q1,2,C*%
%TO.N,Net-(Q1-C)*%
X157480000Y-112730000D03*
%TO.P,Q1,3,B*%
%TO.N,Net-(Q1-B)*%
X157480000Y-111460000D03*
%TD*%
D21*
%TO.N,GND*%
X177750000Y-87200000D02*
X174350000Y-83800000D01*
X174350000Y-90230000D02*
X180340000Y-96220000D01*
X152400000Y-119080000D02*
X149860000Y-119080000D01*
D22*
X173250000Y-83800000D02*
X168662500Y-79212500D01*
D21*
X180340000Y-96220000D02*
X180340000Y-117380000D01*
X157480000Y-114000000D02*
X152400000Y-119080000D01*
X180340000Y-117380000D02*
X178640000Y-119080000D01*
D22*
X168662500Y-79212500D02*
X168662500Y-77400000D01*
D21*
X177800000Y-119080000D02*
X162560000Y-119080000D01*
X174350000Y-83800000D02*
X174350000Y-90230000D01*
X174350000Y-83800000D02*
X173250000Y-83800000D01*
X162560000Y-119080000D02*
X157480000Y-114000000D01*
X177750000Y-88600000D02*
X177750000Y-87200000D01*
X178640000Y-119080000D02*
X177800000Y-119080000D01*
%TO.N,Net-(Q1-B)*%
X167640000Y-108840000D02*
X160100000Y-108840000D01*
X160100000Y-108840000D02*
X157480000Y-111460000D01*
X149860000Y-103840000D02*
X149860000Y-108920000D01*
X152400000Y-111460000D02*
X149860000Y-108920000D01*
X157480000Y-111460000D02*
X152400000Y-111460000D01*
%TO.N,Net-(Q2-E)*%
X154940000Y-88600000D02*
X157480000Y-88600000D01*
X157480000Y-88600000D02*
X170875000Y-88600000D01*
X149860000Y-93680000D02*
X154940000Y-88600000D01*
%TO.N,Net-(Q2-C)*%
X170150000Y-101330000D02*
X167640000Y-103840000D01*
D22*
X159037500Y-79587500D02*
X160570000Y-81120000D01*
X166696396Y-81120000D02*
X171450000Y-85873604D01*
X159037500Y-78000000D02*
X159037500Y-79587500D01*
X160570000Y-81120000D02*
X166696396Y-81120000D01*
D21*
X172680000Y-101300000D02*
X172650000Y-101330000D01*
D22*
X171450000Y-85873604D02*
X171450000Y-88600000D01*
D21*
X167640000Y-103840000D02*
X167640000Y-94270000D01*
X167640000Y-94270000D02*
X163240000Y-89870000D01*
X163240000Y-89870000D02*
X157480000Y-89870000D01*
X177800000Y-101300000D02*
X172680000Y-101300000D01*
X172650000Y-101330000D02*
X170150000Y-101330000D01*
%TO.N,Net-(D1-A)*%
X177800000Y-116540000D02*
X177800000Y-111460000D01*
%TD*%
M02*
