%TF.GenerationSoftware,KiCad,Pcbnew,7.0.9*%
%TF.CreationDate,2023-12-16T18:18:26+09:00*%
%TF.ProjectId,______1,d7edb8a7-afc8-4312-9e6b-696361645f70,rev?*%
%TF.SameCoordinates,PX5e58d50PY7916890*%
%TF.FileFunction,Copper,L1,Top*%
%TF.FilePolarity,Positive*%
%FSLAX46Y46*%
G04 Gerber Fmt 4.6, Leading zero omitted, Abs format (unit mm)*
G04 Created by KiCad (PCBNEW 7.0.9) date 2023-12-16 18:18:26*
%MOMM*%
%LPD*%
G01*
G04 APERTURE LIST*
G04 Aperture macros list*
%AMRoundRect*
0 Rectangle with rounded corners*
0 $1 Rounding radius*
0 $2 $3 $4 $5 $6 $7 $8 $9 X,Y pos of 4 corners*
0 Add a 4 corners polygon primitive as box body*
4,1,4,$2,$3,$4,$5,$6,$7,$8,$9,$2,$3,0*
0 Add four circle primitives for the rounded corners*
1,1,$1+$1,$2,$3*
1,1,$1+$1,$4,$5*
1,1,$1+$1,$6,$7*
1,1,$1+$1,$8,$9*
0 Add four rect primitives between the rounded corners*
20,1,$1+$1,$2,$3,$4,$5,0*
20,1,$1+$1,$4,$5,$6,$7,0*
20,1,$1+$1,$6,$7,$8,$9,0*
20,1,$1+$1,$8,$9,$2,$3,0*%
G04 Aperture macros list end*
%TA.AperFunction,SMDPad,CuDef*%
%ADD10RoundRect,0.250001X-0.487499X-2.399999X0.487499X-2.399999X0.487499X2.399999X-0.487499X2.399999X0*%
%TD*%
%TA.AperFunction,ComponentPad*%
%ADD11R,1.500000X1.050000*%
%TD*%
%TA.AperFunction,ComponentPad*%
%ADD12O,1.500000X1.050000*%
%TD*%
%TA.AperFunction,ComponentPad*%
%ADD13C,1.600000*%
%TD*%
%TA.AperFunction,ComponentPad*%
%ADD14O,1.600000X1.600000*%
%TD*%
%TA.AperFunction,ComponentPad*%
%ADD15R,1.800000X1.800000*%
%TD*%
%TA.AperFunction,ComponentPad*%
%ADD16C,1.800000*%
%TD*%
%TA.AperFunction,ComponentPad*%
%ADD17R,2.000000X4.600000*%
%TD*%
%TA.AperFunction,ComponentPad*%
%ADD18O,2.000000X4.200000*%
%TD*%
%TA.AperFunction,ComponentPad*%
%ADD19O,4.200000X2.000000*%
%TD*%
%TA.AperFunction,ComponentPad*%
%ADD20R,1.600000X1.600000*%
%TD*%
%TA.AperFunction,Conductor*%
%ADD21C,0.250000*%
%TD*%
%TA.AperFunction,Conductor*%
%ADD22C,0.500000*%
%TD*%
G04 APERTURE END LIST*
D10*
%TO.P,REF\u002A\u002A,GND*%
%TO.N,GND*%
X69660000Y50680000D03*
%TO.P,REF\u002A\u002A,VCC*%
%TO.N,Net-(Q2-C)*%
X60035000Y50680000D03*
%TD*%
D11*
%TO.P,Q2,1,E*%
%TO.N,Net-(Q2-E)*%
X58550000Y38370000D03*
D12*
%TO.P,Q2,2,C*%
%TO.N,Net-(Q2-C)*%
X58550000Y37100000D03*
%TO.P,Q2,3,B*%
%TO.N,Net-(Q1-C)*%
X58550000Y35830000D03*
%TD*%
D13*
%TO.P,R2,1*%
%TO.N,Net-(Q2-C)*%
X50930000Y33290000D03*
D14*
%TO.P,R2,2*%
%TO.N,Net-(Q1-B)*%
X50930000Y23130000D03*
%TD*%
D13*
%TO.P,R1,1*%
%TO.N,Net-(Q2-E)*%
X78870000Y25670000D03*
D14*
%TO.P,R1,2*%
%TO.N,Net-(D1-A)*%
X78870000Y15510000D03*
%TD*%
D15*
%TO.P,D1,1,K*%
%TO.N,GND*%
X78870000Y7890000D03*
D16*
%TO.P,D1,2,A*%
%TO.N,Net-(D1-A)*%
X78870000Y10430000D03*
%TD*%
D17*
%TO.P,J1,1*%
%TO.N,Net-(Q2-C)*%
X72520000Y38370000D03*
D18*
%TO.P,J1,2*%
%TO.N,GND*%
X78820000Y38370000D03*
D19*
%TO.P,J1,3*%
X75420000Y43170000D03*
%TD*%
D20*
%TO.P,C1,1*%
%TO.N,Net-(Q1-B)*%
X68710000Y18130000D03*
D13*
%TO.P,C1,2*%
%TO.N,Net-(Q2-E)*%
X68710000Y20630000D03*
%TD*%
%TO.P,R3,1*%
%TO.N,Net-(Q1-B)*%
X50930000Y18050000D03*
D14*
%TO.P,R3,2*%
%TO.N,GND*%
X50930000Y7890000D03*
%TD*%
D11*
%TO.P,Q1,1,E*%
%TO.N,GND*%
X58550000Y12970000D03*
D12*
%TO.P,Q1,2,C*%
%TO.N,Net-(Q1-C)*%
X58550000Y14240000D03*
%TO.P,Q1,3,B*%
%TO.N,Net-(Q1-B)*%
X58550000Y15510000D03*
%TD*%
D21*
%TO.N,GND*%
X78820000Y39770000D02*
X75420000Y43170000D01*
X75420000Y36740000D02*
X81410000Y30750000D01*
X53470000Y7890000D02*
X50930000Y7890000D01*
D22*
X74320000Y43170000D02*
X69732500Y47757500D01*
D21*
X81410000Y30750000D02*
X81410000Y9590000D01*
X58550000Y12970000D02*
X53470000Y7890000D01*
X81410000Y9590000D02*
X79710000Y7890000D01*
D22*
X69732500Y47757500D02*
X69732500Y49570000D01*
D21*
X78870000Y7890000D02*
X63630000Y7890000D01*
X75420000Y43170000D02*
X75420000Y36740000D01*
X75420000Y43170000D02*
X74320000Y43170000D01*
X63630000Y7890000D02*
X58550000Y12970000D01*
X78820000Y38370000D02*
X78820000Y39770000D01*
X79710000Y7890000D02*
X78870000Y7890000D01*
%TO.N,Net-(Q1-B)*%
X68710000Y18130000D02*
X61170000Y18130000D01*
X61170000Y18130000D02*
X58550000Y15510000D01*
X50930000Y23130000D02*
X50930000Y18050000D01*
X53470000Y15510000D02*
X50930000Y18050000D01*
X58550000Y15510000D02*
X53470000Y15510000D01*
%TO.N,Net-(Q2-E)*%
X73750000Y25670000D02*
X68710000Y20630000D01*
X68710000Y28435000D02*
X68710000Y20630000D01*
X78870000Y25670000D02*
X73750000Y25670000D01*
X58550000Y38370000D02*
X58775000Y38370000D01*
X58775000Y38370000D02*
X68710000Y28435000D01*
%TO.N,Net-(Q2-C)*%
X54740000Y37100000D02*
X50930000Y33290000D01*
X57515000Y37100000D02*
X58550000Y37100000D01*
X56010000Y38605000D02*
X57515000Y37100000D01*
X56010000Y41145000D02*
X57475000Y42610000D01*
D22*
X60107500Y47382500D02*
X61640000Y45850000D01*
X67766396Y45850000D02*
X72520000Y41096396D01*
X60107500Y48970000D02*
X60107500Y47382500D01*
X61640000Y45850000D02*
X67766396Y45850000D01*
X72520000Y41096396D02*
X72520000Y38370000D01*
D21*
X58550000Y37100000D02*
X54740000Y37100000D01*
X57475000Y42610000D02*
X68280000Y42610000D01*
X56010000Y38605000D02*
X56010000Y41145000D01*
X68280000Y42610000D02*
X72520000Y38370000D01*
%TO.N,Net-(D1-A)*%
X78870000Y10430000D02*
X78870000Y15510000D01*
%TD*%
M02*
